<svg xmlns="http://www.w3.org/2000/svg" fill="none" viewBox="0 0 325 43"><path fill="#000" d="M18.5 42.875V36.75h-6.125v-6.125H6.25V24.5H.125v-6.125H6.25V12.25h6.125V6.125H18.5V0h12.25v6.125h-6.125v6.125H18.5v6.125h-6.125V24.5H18.5v6.125h6.125v6.125h6.125v6.125H18.5ZM85.875 0v6.125H79.75V0h6.125Zm-12.25 6.125h6.125v6.125h-6.125V6.125ZM67.5 12.25h6.125v6.125H67.5V12.25Zm-6.125 6.125H67.5V24.5h-6.125v-6.125ZM55.25 24.5h6.125v6.125H55.25V24.5Zm-6.125 6.125h6.125v6.125h-6.125v-6.125ZM43 36.75h6.125v6.125H43V36.75Zm49 6.125V0h12.25v18.375h18.375V0h12.25v42.875h-12.25V24.5H104.25v18.375H92Zm67.375 0V6.125h-12.25V0h36.75v6.125h-12.25v36.75h-12.25Zm30.625 0V0h12.25v6.125h6.125v6.125h6.125V6.125h6.125V0h12.25v42.875h-12.25v-24.5H214.5v12.25h-6.125v-12.25h-6.125v24.5H190Zm55.125 0V0h12.25v36.75h24.5v6.125h-36.75Zm49 0V36.75h6.125v-6.125h6.125V24.5h6.125v-6.125h-6.125V12.25h-6.125V6.125h-6.125V0h12.25v6.125h6.125v6.125h6.125v6.125h6.125V24.5h-6.125v6.125H312.5v6.125h-6.125v6.125h-12.25Z"/></svg>